<?xml version="1.0" encoding="utf-8"?>
<!-- Generator: Adobe Illustrator 25.4.0, SVG Export Plug-In . SVG Version: 6.00 Build 0)  -->
<svg version="1.1" id="Ebene_1" xmlns="http://www.w3.org/2000/svg" xmlns:xlink="http://www.w3.org/1999/xlink" x="0px" y="0px"
	 viewBox="0 0 9 9" style="enable-background:new 0 0 9 9;" xml:space="preserve">
<style type="text/css">
	.st0{fill:#9D9D9C;}
</style>
<path class="st0" d="M7.56,1.09C7.45,1.06,7.32,1.05,7.2,1.05c-0.13,0-0.13,0-0.13-0.13c0-0.06,0-0.12,0-0.18
	c-0.03-0.26-0.16-0.46-0.4-0.56C6.44,0.09,6.21,0.09,6.01,0.25C5.84,0.38,5.75,0.57,5.74,0.78c0,0.06,0,0.13,0,0.19
	c0,0.06-0.03,0.08-0.08,0.08c-0.14,0-0.28,0-0.43,0c-0.07,0-0.09-0.03-0.09-0.09c0-0.1,0-0.2-0.02-0.31C5,0.13,4.47,0.01,4.12,0.22
	C3.93,0.33,3.83,0.5,3.81,0.71C3.79,0.8,3.79,0.88,3.79,0.97c0,0.05-0.02,0.08-0.07,0.08c-0.15,0-0.3,0-0.45,0
	c-0.05,0-0.07-0.02-0.07-0.07c0-0.07,0-0.14,0-0.21c0-0.26-0.18-0.54-0.44-0.61C2.47,0.08,2.22,0.12,2.03,0.34
	C1.95,0.43,1.9,0.53,1.87,0.65c-0.02,0.1-0.01,0.2-0.02,0.3c0,0.09-0.01,0.1-0.1,0.1c-0.12,0-0.24,0-0.36,0.02
	C0.92,1.12,0.51,1.58,0.51,2.06c0,1.95,0,3.91,0,5.86c0,0.05,0,0.11,0.02,0.16c0.12,0.45,0.39,0.74,0.86,0.8c2.02,0,4.04,0,6.07,0
	c0.09-0.02,0.17-0.02,0.26-0.05C8.09,8.68,8.35,8.3,8.35,7.89c0-1.93,0-3.86,0-5.79C8.35,1.62,8.03,1.21,7.56,1.09z M6.13,0.81
	c0-0.15,0.08-0.26,0.2-0.3C6.51,0.45,6.68,0.59,6.68,0.8c0,0.19,0,0.39,0,0.58c0,0.2,0,0.39,0,0.59c0,0.15-0.1,0.27-0.24,0.29
	C6.32,2.29,6.19,2.21,6.15,2.08C6.13,2.04,6.13,2,6.13,1.96C6.12,1.58,6.12,1.19,6.13,0.81z M4.47,0.5c0.14,0,0.27,0.12,0.27,0.26
	c0.01,0.21,0,0.42,0,0.63c0,0,0,0,0,0c0,0.2,0,0.4,0,0.61c0,0.12-0.08,0.22-0.19,0.26C4.38,2.31,4.19,2.18,4.19,2
	c-0.01-0.41,0-0.82,0-1.23C4.19,0.62,4.32,0.5,4.47,0.5z M2.37,0.55c0.08-0.06,0.18-0.07,0.27-0.02C2.75,0.59,2.8,0.68,2.8,0.81
	c0,0.19,0,0.39,0,0.58c0,0.19,0,0.38,0,0.56c0,0.07-0.01,0.13-0.05,0.19C2.7,2.23,2.59,2.28,2.49,2.27
	C2.37,2.25,2.28,2.16,2.26,2.05C2.25,2.01,2.25,1.97,2.25,1.93c0-0.36,0-0.73,0-1.09C2.25,0.73,2.27,0.62,2.37,0.55z M7.73,7.82
	c0,0.29-0.17,0.46-0.46,0.46c-1.89,0-3.78,0-5.67,0c-0.29,0-0.46-0.18-0.46-0.46c0-1.72,0-3.43,0-5.15c0-0.07,0.02-0.09,0.09-0.09
	c1.07,0,2.14,0,3.21,0s2.14,0,3.21,0c0.07,0,0.09,0.02,0.09,0.09C7.73,4.39,7.73,6.11,7.73,7.82z"/>
<path class="st0" d="M2.22,4.63c-0.16,0-0.33,0-0.49,0c-0.05,0-0.06-0.01-0.06-0.06c0-0.29,0-0.57,0-0.86
	c0-0.05,0.02-0.07,0.07-0.07c0.33,0,0.65,0,0.98,0c0.05,0,0.06,0.02,0.06,0.06c0,0.29,0,0.58,0,0.87c0,0.04-0.01,0.06-0.06,0.06
	C2.55,4.63,2.39,4.63,2.22,4.63z"/>
<path class="st0" d="M3.69,3.64c0.16,0,0.32,0,0.49,0c0.05,0,0.07,0.02,0.07,0.07c0,0.29,0,0.57,0,0.86c0,0.05-0.01,0.06-0.06,0.06
	c-0.33,0-0.66,0-0.99,0c-0.04,0-0.06-0.01-0.06-0.06c0-0.29,0-0.58,0-0.87c0-0.05,0.01-0.06,0.06-0.06
	C3.36,3.64,3.53,3.64,3.69,3.64z"/>
<path class="st0" d="M5.16,4.63c-0.16,0-0.32,0-0.49,0c-0.05,0-0.06-0.01-0.06-0.06c0-0.29,0-0.58,0-0.87
	c0-0.04,0.01-0.06,0.06-0.06c0.33,0,0.66,0,0.99,0c0.04,0,0.06,0.01,0.06,0.06c0,0.29,0,0.59,0,0.88c0,0.05-0.03,0.05-0.06,0.05
	C5.49,4.63,5.33,4.63,5.16,4.63z"/>
<path class="st0" d="M6.64,4.63c-0.16,0-0.32,0-0.49,0c-0.04,0-0.07,0-0.06-0.06c0-0.29,0-0.58,0-0.87c0-0.05,0.01-0.06,0.06-0.06
	c0.33,0,0.65,0,0.98,0c0.05,0,0.07,0.02,0.07,0.07c0,0.29,0,0.57,0,0.86c0,0.05-0.02,0.06-0.06,0.06C6.97,4.63,6.8,4.63,6.64,4.63z"
	/>
<path class="st0" d="M2.21,5.94c-0.16,0-0.32,0-0.48,0c-0.06,0-0.07-0.02-0.07-0.07c0-0.28,0-0.57,0-0.85
	c0-0.05,0.01-0.06,0.06-0.06c0.33,0,0.67,0,1,0c0.04,0,0.05,0.01,0.05,0.05c0,0.29,0,0.59,0,0.88c0,0.04-0.01,0.06-0.06,0.06
	C2.55,5.94,2.38,5.94,2.21,5.94z"/>
<path class="st0" d="M6.64,4.96c0.16,0,0.32,0,0.49,0c0.05,0,0.07,0.02,0.07,0.07c0,0.28,0,0.57,0,0.85c0,0.05-0.01,0.07-0.07,0.07
	c-0.33,0-0.65,0-0.98,0c-0.05,0-0.06-0.01-0.06-0.06c0-0.29,0-0.58,0-0.87c0-0.05,0.02-0.06,0.06-0.06
	C6.31,4.96,6.48,4.96,6.64,4.96z"/>
<path class="st0" d="M3.7,4.96c0.16,0,0.32,0,0.48,0c0.05,0,0.07,0.02,0.06,0.07c0,0.28,0,0.57,0,0.85c0,0.05-0.01,0.07-0.07,0.07
	c-0.32,0-0.65,0-0.97,0c-0.05,0-0.07-0.01-0.07-0.06c0-0.29,0-0.58,0-0.86c0-0.05,0.01-0.06,0.06-0.06C3.37,4.96,3.53,4.96,3.7,4.96
	z"/>
<path class="st0" d="M5.16,4.96c0.17,0,0.33,0,0.5,0c0.05,0,0.06,0.01,0.06,0.06c0,0.29,0,0.58,0,0.86c0,0.06-0.02,0.07-0.07,0.06
	c-0.32,0-0.65,0-0.97,0c-0.06,0-0.07-0.02-0.07-0.07c0-0.28,0-0.57,0-0.85c0-0.06,0.02-0.07,0.07-0.07C4.84,4.96,5,4.96,5.16,4.96z"
	/>
<path class="st0" d="M2.22,6.27c0.16,0,0.33,0,0.49,0c0.05,0,0.06,0.01,0.06,0.06c0,0.29,0,0.57,0,0.86c0,0.05-0.01,0.06-0.06,0.06
	c-0.33,0-0.65,0-0.98,0c-0.05,0-0.07-0.01-0.07-0.07c0-0.28,0-0.57,0-0.85c0-0.05,0.02-0.07,0.07-0.07
	C1.89,6.27,2.05,6.27,2.22,6.27z"/>
<path class="st0" d="M3.69,6.27c0.16,0,0.33,0,0.49,0c0.05,0,0.06,0.01,0.06,0.06c0,0.29,0,0.57,0,0.86c0,0.05-0.01,0.06-0.06,0.06
	c-0.33,0-0.65,0-0.98,0c-0.05,0-0.07-0.01-0.07-0.07c0-0.28,0-0.57,0-0.85c0-0.05,0.02-0.07,0.07-0.07
	C3.37,6.27,3.53,6.27,3.69,6.27z"/>
<path class="st0" d="M5.17,6.27c0.16,0,0.32,0,0.48,0c0.06,0,0.08,0.01,0.08,0.07c0,0.28,0,0.56,0,0.84c0,0.06-0.02,0.07-0.08,0.07
	c-0.32,0-0.64,0-0.97,0c-0.05,0-0.07-0.01-0.07-0.06c0-0.28,0-0.57,0-0.85c0-0.05,0.01-0.07,0.07-0.07C4.84,6.27,5,6.27,5.17,6.27z"
	/>
<path class="st0" d="M6.64,7.25c-0.16,0-0.33,0-0.49,0c-0.04,0-0.06-0.01-0.06-0.06c0-0.29,0-0.58,0-0.87
	c0-0.04,0.01-0.06,0.06-0.06c0.33,0,0.66,0,0.99,0c0.05,0,0.07,0.01,0.06,0.06c0,0.29,0,0.57,0,0.86c0,0.05-0.01,0.06-0.06,0.06
	C6.97,7.25,6.8,7.25,6.64,7.25z"/>
</svg>
